<svg width="118" height="41" viewBox="0 0 118 41" fill="none" xmlns="http://www.w3.org/2000/svg">
<path d="M4.66167 14.9667C4.97315 14.6555 5.34212 14.4077 5.74808 14.2372C6.1674 14.0588 6.61887 13.9686 7.07452 13.9719C7.57095 13.9665 8.06254 14.07 8.51465 14.2751C8.94628 14.473 9.33311 14.7567 9.6516 15.1088L12.1276 12.6297C11.4903 11.9234 10.7111 11.3595 9.84109 10.9748C8.94677 10.5766 7.97766 10.3741 6.99872 10.381C6.06457 10.3753 5.13951 10.5647 4.28269 10.9369C2.60684 11.6527 1.27189 12.9877 0.556027 14.6635C0.18382 15.5203 -0.0054951 16.4454 0.000185948 17.3796C-0.00678855 18.322 0.182507 19.2556 0.556027 20.1209C1.27189 21.7967 2.60684 23.1317 4.28269 23.8475C5.13973 24.219 6.06464 24.4083 6.99872 24.4034C7.9102 24.4087 8.81309 24.227 9.6516 23.8696C10.4543 23.5283 11.19 23.0471 11.8244 22.4485L9.39895 20.0072H9.31683C9.0099 20.2621 8.66454 20.4667 8.29358 20.6136C7.90348 20.7672 7.48746 20.8444 7.0682 20.8409C6.38214 20.8464 5.71125 20.639 5.14803 20.2472C4.58757 19.8665 4.15586 19.3247 3.91002 18.6934C3.90009 18.6708 3.88735 18.6496 3.87212 18.6302C3.85647 18.6111 3.8437 18.5898 3.83422 18.567C3.71153 18.1834 3.65181 17.7823 3.65736 17.3796C3.65403 16.9239 3.74433 16.4724 3.92265 16.0531C4.096 15.6464 4.34703 15.2774 4.66167 14.9667Z" fill="white"/>
<path d="M22.5812 11.7579C22.1866 11.5395 21.7694 11.3648 21.3369 11.2368C20.9155 11.1055 20.477 11.0374 20.0357 11.0347C19.6974 11.0418 19.3617 11.095 19.0377 11.1926C18.69 11.2879 18.3518 11.4148 18.0271 11.5716C17.7337 11.7108 17.4581 11.8847 17.206 12.0895C17.0076 12.2301 16.8575 12.4287 16.7765 12.658V11.2684H12.8856V24.3559H16.7765V18.3143C16.7765 17.1679 17.0165 16.3004 17.4965 15.7119C17.7153 15.4296 17.9973 15.2024 18.3198 15.0489C18.6424 14.8953 18.9964 14.8195 19.3535 14.8276C19.6352 14.8294 19.9155 14.8676 20.1873 14.9413C20.472 15.0149 20.746 15.1253 21.0021 15.2698C21.2426 15.4031 21.4637 15.5689 21.659 15.7625C21.8333 15.9303 21.9635 16.1386 22.038 16.3688L24.1856 13.3117C24.0378 13.0017 23.832 12.723 23.5792 12.4906C23.2802 12.2035 22.9447 11.9571 22.5812 11.7579Z" fill="white"/>
<path d="M36.0793 12.6927C35.5079 11.9609 34.7663 11.3797 33.9191 10.9999C32.9924 10.5915 31.9882 10.389 30.9757 10.4061C29.9665 10.381 28.9647 10.584 28.0449 10.9999C27.2492 11.3743 26.5477 11.9226 25.9921 12.6042C25.4372 13.2906 25.0249 14.0809 24.7793 14.9287C24.5158 15.8228 24.3839 16.7505 24.3877 17.6826C24.3787 18.5982 24.5593 19.5057 24.9183 20.3481C25.2565 21.1414 25.7505 21.8588 26.371 22.4578C26.9979 23.0549 27.7362 23.5228 28.5439 23.8347C29.3996 24.1668 30.3104 24.334 31.2283 24.3274C31.9652 24.3274 32.5842 24.3106 33.0853 24.2769C33.5559 24.2473 34.0218 24.1668 34.4749 24.0369C34.9331 23.8981 35.3739 23.7074 35.7887 23.4684C36.2362 23.2157 36.7794 22.8789 37.4184 22.4578L34.9171 19.9818C34.4043 20.4032 33.8143 20.7208 33.1801 20.9166C32.7271 21.0413 32.2603 21.1092 31.7905 21.1187C30.9819 21.102 30.1874 20.9033 29.4661 20.5376C29.1268 20.3635 28.8261 20.1229 28.5818 19.8302C28.3533 19.5624 28.2279 19.222 28.2281 18.8701H37.4247C37.5811 17.7007 37.5384 16.5133 37.2984 15.3582C37.0965 14.3897 36.6799 13.4788 36.0793 12.6927ZM28.1712 15.7624C28.1803 15.5335 28.2597 15.313 28.3986 15.1308C28.5593 14.9033 28.7606 14.7073 28.9923 14.5528C29.2432 14.3804 29.5149 14.2404 29.8008 14.1359C30.0795 14.0313 30.3748 13.9778 30.6725 13.978C31.0663 13.9769 31.4595 14.0107 31.8473 14.0791C32.1936 14.1351 32.5298 14.2415 32.8453 14.3949C33.1137 14.5233 33.3476 14.7138 33.5275 14.9508C33.6998 15.1892 33.7886 15.4778 33.7801 15.7719L28.1712 15.7624Z" fill="white"/>
<path d="M47.8783 11.8465C47.5332 11.6021 47.1421 11.4302 46.7287 11.3412C46.1292 11.1961 45.5137 11.1282 44.897 11.1391C44.0865 11.1347 43.2826 11.2847 42.5283 11.5812C41.7863 11.8698 41.1145 12.3134 40.5576 12.8824C39.9667 13.4948 39.5067 14.2212 39.2059 15.0173C38.8538 15.9492 38.6823 16.9395 38.7006 17.9355C38.7006 19.4672 39.0038 20.7263 39.6102 21.7127C40.1506 22.6349 40.9382 23.3875 41.884 23.8855C42.8026 24.3506 43.8237 24.5766 44.8527 24.5424C45.902 24.5214 46.9334 24.2668 47.872 23.7971V24.3529H51.7376V11.237H47.8467L47.8783 11.8465ZM47.8783 19.6788C47.5409 20.094 47.1131 20.4267 46.6276 20.6515C46.0592 20.8659 45.4536 20.9647 44.8464 20.9421C44.4651 20.9419 44.0882 20.86 43.7411 20.7021C43.3911 20.5442 43.0773 20.3164 42.8189 20.0325C42.5467 19.7288 42.3326 19.3777 42.1872 18.9966C42.0226 18.5697 41.9411 18.1151 41.9472 17.6576C41.9428 17.2071 42.0287 16.7604 42.1999 16.3438C42.3577 15.9536 42.5893 15.5976 42.882 15.2952C43.1663 15.0009 43.5053 14.7649 43.88 14.6004C44.2659 14.4302 44.6836 14.344 45.1054 14.3478C45.9644 14.3478 46.6424 14.5668 47.1393 15.0047C47.3795 15.2098 47.5711 15.4659 47.7 15.7544C47.829 16.0428 47.892 16.3564 47.8846 16.6722L47.8783 19.6788Z" fill="white"/>
<path d="M61.8501 24.3528H62.027C62.6072 24.354 63.185 24.2776 63.745 24.1254C64.2908 23.9777 64.8077 23.7385 65.2736 23.418C65.7411 23.0924 66.151 22.6911 66.4863 22.2305C66.8451 21.7277 67.1065 21.1621 67.2569 20.563L64.3514 18.946C64.1819 19.5524 63.9187 20.0072 63.5618 20.3104C63.205 20.6135 62.6154 20.7651 61.7933 20.7651C61.0353 20.7651 60.4205 20.5546 59.9489 20.1335C59.4772 19.7124 59.2435 19.1155 59.2478 18.3428V14.9035H67.0801V11.0885H59.2478V6.66699H55.3821V11.0885H53.7904V14.9035H55.3821V19.3503C55.3821 21.0515 55.9211 22.3105 56.9991 23.1275C58.0771 23.9444 59.6267 24.3528 61.648 24.3528H61.8501Z" fill="white"/>
<path d="M70.3393 9.87574C70.6286 9.88019 70.9157 9.82532 71.1829 9.71451C71.4502 9.6037 71.6919 9.43931 71.8931 9.23147C72.1026 9.02616 72.2678 8.78014 72.3786 8.50857C72.4894 8.237 72.5434 7.94562 72.5374 7.65238C72.537 7.06954 72.3053 6.51069 71.8931 6.09855C71.481 5.68642 70.9221 5.4547 70.3393 5.45428C70.0482 5.45051 69.7594 5.50564 69.4902 5.61636C69.221 5.72708 68.977 5.8911 68.7728 6.09855C68.5616 6.29783 68.3941 6.53888 68.281 6.80638C68.1679 7.07389 68.1117 7.36199 68.1159 7.65238C68.11 7.94675 68.1653 8.23913 68.2784 8.51097C68.3915 8.78281 68.5599 9.02817 68.7728 9.23147C68.977 9.43893 69.221 9.60295 69.4902 9.71367C69.7594 9.82438 70.0482 9.87952 70.3393 9.87574Z" fill="white"/>
<path d="M72.2847 11.1138H68.3939V24.3529H72.2847V11.1138Z" fill="white"/>
<path d="M79.2833 24.3276H82.3657H83.1742L88.1752 11.1643H84.3111L80.8229 20.3104L77.7168 11.1643H73.8244L78.4748 24.3276H79.2833Z" fill="white"/>
<path d="M68.6576 36.068C68.3502 36.3218 68.0049 36.5259 67.6343 36.6728C67.1195 36.8709 66.5643 36.941 66.0164 36.8772C65.4685 36.8134 64.9443 36.6175 64.4888 36.3065C63.9276 35.9265 63.4957 35.3845 63.2507 34.7526C63.24 34.7305 63.2273 34.7094 63.2129 34.6895C63.1965 34.6709 63.1836 34.6495 63.175 34.6263C63.0548 34.2422 62.9977 33.8412 63.006 33.4388C63.0028 32.9837 63.0931 32.5328 63.2713 32.114C63.6182 31.2938 64.2706 30.6409 65.0904 30.2933C65.5097 30.1149 65.9612 30.0247 66.4168 30.028C66.9133 30.0227 67.4048 30.1262 67.857 30.3312C68.2887 30.5296 68.6755 30.8138 68.9939 31.1665L71.4699 28.6889C70.8301 27.9804 70.0484 27.4144 69.1755 27.0277C68.2809 26.6303 67.312 26.4279 66.3331 26.434C65.3991 26.429 64.4741 26.6183 63.6171 26.9898C61.9413 27.7057 60.6063 29.0406 59.8904 30.7165C59.5236 31.5794 59.3345 32.5075 59.3345 33.4451C59.3345 34.3828 59.5236 35.3109 59.8904 36.1738C60.6063 37.8497 61.9413 39.1846 63.6171 39.9005C64.465 40.2629 65.3769 40.4519 66.299 40.4563C67.2211 40.4606 68.1348 40.2802 68.986 39.9257C69.789 39.585 70.5248 39.1037 71.1588 38.5046L68.7334 36.0554L68.6576 36.068Z" fill="white"/>
<path d="M82.6925 28.4996C82.0527 27.863 81.2983 27.353 80.4692 26.9963C79.6107 26.6295 78.6867 26.4404 77.7531 26.4404C76.8196 26.4404 75.8956 26.6295 75.0371 26.9963C74.2077 27.3526 73.4533 27.8627 72.8137 28.4996C72.178 29.1375 71.6718 29.8926 71.3231 30.723C70.9645 31.5836 70.7799 32.5067 70.7799 33.439C70.7799 34.3713 70.9645 35.2944 71.3231 36.155C72.0244 37.8334 73.3588 39.1677 75.0371 39.8691C75.8977 40.2277 76.8208 40.4123 77.7531 40.4123C78.6855 40.4123 79.6086 40.2277 80.4692 39.8691C81.2996 39.5204 82.0546 39.0142 82.6925 38.3784C83.3295 37.7388 83.8396 36.9844 84.1958 36.155C84.5626 35.2965 84.7517 34.3726 84.7517 33.439C84.7517 32.5054 84.5626 31.5815 84.1958 30.723C83.8392 29.8938 83.3291 29.1395 82.6925 28.4996ZM80.8103 34.7528C80.6331 35.1646 80.3803 35.5395 80.0649 35.8582C79.7474 36.1748 79.3722 36.4278 78.9596 36.6035C78.5331 36.7886 78.0728 36.8832 77.6079 36.8814C77.1386 36.8861 76.6736 36.7914 76.2435 36.6035C75.4155 36.2472 74.7555 35.5872 74.3991 34.7591C74.2113 34.3291 74.1166 33.8641 74.1212 33.3948C74.1195 32.9299 74.2141 32.4696 74.3991 32.0431C74.5748 31.6305 74.8278 31.2553 75.1445 30.9377C75.4631 30.6224 75.838 30.3696 76.2498 30.1924C76.6803 30.0058 77.1451 29.9116 77.6142 29.9161C78.0748 29.914 78.5309 30.0059 78.9548 30.1861C79.7939 30.5368 80.4611 31.204 80.8118 32.0431C80.9962 32.4698 81.0908 32.9299 81.0898 33.3948C81.0923 33.862 80.9971 34.3246 80.8103 34.7528Z" fill="white"/>
<path d="M112.492 28.7521C111.921 28.0201 111.179 27.4393 110.331 27.0609C109.405 26.6519 108.401 26.4488 107.388 26.4656C106.379 26.4411 105.377 26.6446 104.457 27.0609C103.662 27.4358 102.961 27.9833 102.404 28.6637C101.851 29.3512 101.439 30.1411 101.192 30.9881C100.928 31.8822 100.796 32.8099 100.8 33.7421C100.791 34.6577 100.972 35.5652 101.331 36.4076C101.668 37.2013 102.162 37.9189 102.783 38.5172C103.41 39.1146 104.148 39.5825 104.956 39.8942C105.812 40.2263 106.723 40.3935 107.641 40.3869C108.383 40.3869 109.002 40.37 109.498 40.3363C109.968 40.3076 110.434 40.2271 110.887 40.0963C111.345 39.9577 111.786 39.7675 112.201 39.5294C112.648 39.2757 113.192 38.9383 113.831 38.5172L111.326 36.0412C110.687 36.5307 110.108 36.8423 109.589 36.976C109.136 37.1016 108.669 37.1695 108.2 37.1782C107.391 37.1614 106.597 36.9628 105.875 36.5971C105.536 36.4235 105.235 36.1828 104.991 35.8896C104.762 35.6221 104.637 35.2815 104.637 34.9295H113.834C113.991 33.7602 113.948 32.5726 113.708 31.4176C113.506 30.4495 113.091 29.5387 112.492 28.7521ZM104.583 31.8219C104.593 31.593 104.672 31.3725 104.811 31.1902C104.973 30.9627 105.174 30.7659 105.405 30.6091C105.656 30.4382 105.928 30.2982 106.213 30.1923C106.492 30.0883 106.787 30.0348 107.085 30.0343C107.479 30.034 107.872 30.0678 108.26 30.1354C108.606 30.1929 108.942 30.2992 109.258 30.4512C109.527 30.5793 109.761 30.7706 109.94 31.0086C110.112 31.2465 110.201 31.5346 110.192 31.8282L104.583 31.8219Z" fill="white"/>
<path d="M117.418 38.3657C117.307 38.2511 117.173 38.1606 117.026 38.0998C116.878 38.039 116.719 38.0091 116.559 38.012C116.401 38.0085 116.244 38.0382 116.099 38.0992C115.953 38.1601 115.821 38.2509 115.713 38.3657C115.494 38.5981 115.372 38.9054 115.372 39.2247C115.372 39.5441 115.494 39.8514 115.713 40.0838C115.821 40.1988 115.953 40.2898 116.098 40.3507C116.244 40.4117 116.401 40.4412 116.559 40.4375C116.799 40.4373 117.034 40.3661 117.233 40.2327C117.433 40.0994 117.588 39.9099 117.68 39.6883C117.772 39.4666 117.796 39.2227 117.75 38.9873C117.703 38.7519 117.588 38.5356 117.418 38.3657Z" fill="white"/>
<path d="M101.787 0.499025C98.9787 0.497518 96.2495 1.42924 94.0284 3.14774C91.8073 4.86624 90.2203 7.27408 89.5167 9.9928C88.8131 12.7115 89.0329 15.587 90.1415 18.1672C91.2501 20.7474 93.1846 22.886 95.6411 24.247V28.4884C95.4226 28.2568 95.1663 28.0641 94.8831 27.9184C94.5767 27.7572 94.2551 27.6265 93.9231 27.5284C93.5888 27.427 93.2465 27.3546 92.8998 27.312C92.5771 27.2719 92.2523 27.2508 91.9271 27.2489C91.0706 27.244 90.2212 27.4049 89.4258 27.7226C88.6664 28.025 87.9749 28.476 87.3919 29.049C86.7965 29.6434 86.328 30.3525 86.015 31.1334C85.6672 32.0049 85.4955 32.9366 85.5096 33.8747C85.5096 35.1727 85.7876 36.3013 86.3434 37.2603C86.874 38.1955 87.6406 38.9752 88.5668 39.5216C89.5515 40.0876 90.6543 40.4168 91.7881 40.4832C93.096 40.5628 94.4065 40.3775 95.6411 39.9384V40.4122H99.5067V25.6334C101.238 25.9503 103.017 25.9027 104.729 25.4939C106.442 25.0851 108.05 24.3239 109.452 23.2589C110.854 22.194 112.018 20.8486 112.871 19.3086C113.724 17.7686 114.247 16.0677 114.406 14.3145C114.565 12.5612 114.357 10.7941 113.795 9.12569C113.233 7.45732 112.33 5.92433 111.142 4.6245C109.955 3.32466 108.51 2.28648 106.899 1.57618C105.289 0.865875 103.547 0.499026 101.787 0.499025ZM95.2195 34.9232C95.0384 35.3267 94.781 35.6913 94.4615 35.997C94.1599 36.2851 93.8091 36.5167 93.4256 36.6808C93.0707 36.8349 92.6883 36.916 92.3013 36.9192C91.9446 36.9163 91.5907 36.8566 91.2528 36.7424C90.8923 36.6267 90.5577 36.4423 90.2675 36.1992C89.9375 35.9237 89.6741 35.5773 89.4969 35.1857C89.3197 34.7941 89.2333 34.3675 89.2442 33.9379C89.2442 32.9273 89.4884 32.1377 89.9769 31.5693C90.4654 31.0008 91.1896 30.7186 92.1497 30.7229C92.5854 30.7207 93.0192 30.7803 93.4383 30.8997C93.8274 31.011 94.1918 31.1954 94.5121 31.4429C94.8176 31.681 95.0676 31.9827 95.2448 32.3272C95.428 32.7008 95.519 33.1129 95.51 33.5289C95.516 34.0093 95.4168 34.4852 95.2195 34.9232ZM110.164 6.51537C110.322 6.72223 110.488 6.93699 110.638 7.14701L110.379 7.33965C110.235 7.12806 110.082 6.91962 109.922 6.71907L110.164 6.51537ZM108.111 4.53834C108.323 4.69625 108.533 4.85416 108.733 5.0326L108.528 5.27104C108.334 5.10524 108.13 4.94417 107.923 4.79732L108.111 4.53834ZM106.905 3.77722C107.135 3.90197 107.366 4.03935 107.589 4.18305L107.421 4.44676C107.205 4.3078 106.982 4.17515 106.758 4.05198L106.905 3.77722ZM105.611 3.18348C105.858 3.27665 106.104 3.38245 106.343 3.4993L106.208 3.78512C105.976 3.67616 105.735 3.57352 105.499 3.48193L105.611 3.18348ZM104.244 2.76344C104.501 2.82345 104.759 2.89451 105.01 2.97346L104.915 3.27507C104.672 3.19769 104.421 3.12821 104.173 3.06979L104.244 2.76344ZM102.835 2.52974C103.098 2.555 103.363 2.59132 103.625 2.63554L103.571 2.95136C103.32 2.90872 103.063 2.87398 102.807 2.84872L102.835 2.52974ZM102.204 2.4871L102.193 2.80292C101.937 2.79345 101.678 2.79345 101.422 2.80292L101.411 2.4871C101.672 2.46973 101.939 2.47131 102.201 2.48079L102.204 2.4871ZM100.783 2.52658L100.813 2.8424C100.558 2.86609 100.301 2.90083 100.048 2.94346L99.9962 2.62764C100.246 2.58027 100.511 2.55185 100.773 2.52026L100.783 2.52658ZM99.3725 2.75555L99.4436 3.06347C99.1956 3.12032 98.9446 3.18822 98.6998 3.26402L98.6066 2.96241C98.8514 2.87872 99.1072 2.80766 99.363 2.74923L99.3725 2.75555ZM98.005 3.17085L98.1171 3.46614C97.8787 3.55615 97.6434 3.65721 97.4081 3.76459L97.2723 3.47246C97.5044 3.36192 97.746 3.2577 97.9955 3.16453L98.005 3.17085ZM96.7086 3.76459L96.8665 4.04251C96.6423 4.1641 96.418 4.29674 96.2033 4.43412L96.009 4.16252C96.2364 4.0204 96.467 3.8846 96.6991 3.75827L96.7086 3.76459ZM95.5006 4.52729L95.6869 4.78152C95.48 4.93943 95.2763 5.09734 95.0821 5.25525L94.8768 5.01523C95.0616 4.84153 95.2779 4.67573 95.4911 4.52097L95.5006 4.52729ZM94.4047 5.44316L94.6242 5.67213C94.4394 5.84899 94.2578 6.03374 94.0857 6.22482L93.852 6.01322C94.0194 5.81109 94.2057 5.61844 94.3952 5.43685L94.4047 5.44316ZM93.4398 6.49642L93.6862 6.69381C93.5283 6.89435 93.3704 7.10279 93.2283 7.31439L92.9582 7.13121C93.1067 6.91172 93.2661 6.69696 93.4304 6.4901L93.4398 6.49642ZM92.6235 7.66969L92.8935 7.82759C92.7608 8.04867 92.6361 8.27606 92.5208 8.50345L92.2397 8.36133C92.3487 8.12446 92.4782 7.89076 92.614 7.66337L92.6235 7.66969ZM91.9697 8.94243L92.2603 9.06718C92.1576 9.30247 92.0645 9.54091 91.9808 9.78725L91.6823 9.68303C91.7597 9.42722 91.856 9.18404 91.9602 8.93612L91.9697 8.94243ZM91.496 10.291L91.8007 10.3747C91.7313 10.621 91.6713 10.8737 91.6207 11.1247L91.3049 11.0616C91.3507 10.7979 91.4123 10.5373 91.4834 10.2894L91.496 10.291ZM91.2054 11.6885L91.5213 11.7327C91.4849 11.9853 91.4597 12.2427 91.4423 12.4986L91.1265 12.478C91.1281 12.2096 91.1565 11.9427 91.1928 11.6822L91.2054 11.6885ZM91.1012 13.1776V13.1144H91.417V13.1776C91.417 13.4144 91.4265 13.6513 91.4407 13.8866L91.1249 13.9071C91.0981 13.6608 91.0886 13.4144 91.0886 13.1712L91.1012 13.1776ZM91.1881 14.5387L91.5039 14.4993C91.537 14.7535 91.5781 15.0093 91.6302 15.2604L91.3144 15.3235C91.2512 15.0583 91.2086 14.7946 91.1754 14.5324L91.1881 14.5387ZM91.4628 15.941L91.7676 15.8604C91.8339 16.1068 91.9097 16.3547 91.9934 16.5963L91.695 16.7005C91.5955 16.4479 91.5181 16.1889 91.4502 15.9347L91.4628 15.941ZM92.2524 18.0127C92.1339 17.7775 92.0218 17.539 91.9208 17.2927L92.2113 17.1711C92.3108 17.4064 92.4182 17.6448 92.5271 17.8706L92.2524 18.0127ZM92.9835 19.2397C92.8335 19.0234 92.6898 18.7976 92.5571 18.5702L92.8287 18.4123C92.9582 18.6333 93.0972 18.8512 93.2425 19.0628L92.9835 19.2397ZM93.8694 20.3593C93.6925 20.165 93.5204 19.9598 93.3577 19.7529L93.6072 19.5587C93.7651 19.7592 93.9231 19.9582 94.1031 20.1477L93.8694 20.3593ZM94.8974 21.3525C94.6952 21.182 94.4978 21.002 94.3099 20.8172L94.531 20.593C94.7142 20.7714 94.9052 20.9467 95.1011 21.1109L94.8974 21.3525ZM96.0485 22.2005C95.8259 22.0584 95.6064 21.9068 95.3948 21.7489L95.5843 21.4946C95.7895 21.6526 96.0027 21.7963 96.2159 21.9336L96.0485 22.2005ZM97.3023 22.8874C97.0623 22.7769 96.8286 22.6553 96.5933 22.5274L96.7512 22.251C96.9754 22.3758 97.206 22.4942 97.4381 22.6016L97.3023 22.8874ZM98.6366 23.4006C98.3856 23.3232 98.1329 23.2348 97.8866 23.1385L98.0018 22.8448C98.2403 22.9379 98.4866 23.0232 98.7298 23.099L98.6366 23.4006ZM100.028 23.7306C99.7673 23.6864 99.5051 23.6327 99.2493 23.5727L99.3251 23.2664C99.573 23.328 99.8257 23.3801 100.08 23.4243L100.028 23.7306ZM101.449 23.8696C101.185 23.8617 100.918 23.8428 100.659 23.8159L100.693 23.5001C100.947 23.5269 101.206 23.5443 101.462 23.5538L101.449 23.8696ZM102.081 23.8696V23.5538C102.336 23.5538 102.595 23.5301 102.85 23.5048L102.881 23.8206C102.603 23.8428 102.338 23.8585 102.073 23.8696H102.081ZM103.502 23.737L103.451 23.4211C103.706 23.3801 103.96 23.3295 104.208 23.2632L104.28 23.5711C104.018 23.6406 103.756 23.6927 103.496 23.7338L103.502 23.737ZM104.895 23.4211L104.803 23.1195C105.048 23.0453 105.293 22.9616 105.531 22.8685L105.645 23.1637C105.392 23.2506 105.139 23.3374 104.888 23.4132L104.895 23.4211ZM106.231 22.9174L106.098 22.63C106.332 22.5242 106.562 22.4074 106.786 22.2842L106.944 22.5621C106.701 22.6805 106.463 22.8006 106.224 22.9095L106.231 22.9174ZM107.486 22.2384L107.318 21.9715C107.535 21.8357 107.748 21.6889 107.95 21.5373L108.136 21.7915C107.923 21.9399 107.702 22.0915 107.48 22.2305L107.486 22.2384ZM108.642 21.3999L108.438 21.1567C108.635 20.9988 108.828 20.8204 109.013 20.6419L109.226 20.8693C109.037 21.0446 108.838 21.223 108.642 21.392V21.3999ZM101.793 20.6404C100.318 20.6404 98.875 20.2028 97.648 19.3829C96.421 18.5631 95.4647 17.3978 94.9 16.0344C94.3353 14.6711 94.1875 13.1709 94.4754 11.7235C94.7633 10.2762 95.4739 8.94674 96.5174 7.90327C97.5608 6.8598 98.8903 6.14918 100.338 5.86129C101.785 5.5734 103.285 5.72116 104.649 6.28588C106.012 6.8506 107.177 7.80692 107.997 9.03391C108.817 10.2609 109.254 11.7035 109.254 13.1791C109.25 15.1569 108.461 17.0522 107.061 18.4494C105.661 19.8466 103.765 20.6316 101.787 20.6325L101.793 20.6404ZM108.989 5.69266L109.209 5.46527C109.398 5.64845 109.585 5.8411 109.76 6.0369L109.524 6.24692C109.354 6.05743 109.174 5.86794 108.989 5.69266ZM109.668 20.4051L109.431 20.1919C109.605 20.004 109.774 19.8066 109.932 19.606L110.18 19.8019C110.02 20.0087 109.848 20.2108 109.668 20.4051ZM110.564 19.2997L110.305 19.1181C110.451 18.9081 110.592 18.6902 110.723 18.4707L110.995 18.6286C110.86 18.8497 110.715 19.0755 110.564 19.2902V19.2997ZM111.303 18.0743L111.021 17.9306C111.14 17.7017 111.249 17.468 111.35 17.2327L111.64 17.3558C111.538 17.5895 111.424 17.8327 111.303 18.0664V18.0743ZM111.871 16.7621L111.574 16.6563C111.659 16.4163 111.732 16.1684 111.805 15.922L112.109 16.0041C112.04 16.2521 111.958 16.5063 111.871 16.7542V16.7621ZM112.258 15.3867L111.942 15.322C111.994 15.0725 112.038 14.8167 112.073 14.5624L112.389 14.6035C112.357 14.8577 112.312 15.1214 112.258 15.3788V15.3867ZM112.485 13.176C112.485 13.4413 112.476 13.7081 112.457 13.9655L112.141 13.9434C112.158 13.6892 112.168 13.4286 112.168 13.1728V13.1428H112.484L112.485 13.176ZM112.466 12.5128L112.151 12.5317C112.135 12.2759 112.109 12.0185 112.075 11.7643L112.391 11.7232C112.432 11.9775 112.449 12.2427 112.466 12.5001V12.5128ZM112.283 11.0916L111.967 11.1516C111.918 10.9021 111.858 10.6494 111.79 10.4031L112.095 10.3178C112.171 10.5705 112.233 10.831 112.283 11.09V11.0916ZM111.914 9.71145L111.615 9.81251C111.532 9.57091 111.438 9.32931 111.339 9.09403L111.629 8.97086C111.732 9.21088 111.828 9.46038 111.914 9.70987V9.71145ZM111.363 8.39449L111.08 8.53661C110.966 8.30764 110.841 8.08025 110.71 7.86076L110.982 7.70285C111.116 7.92076 111.244 8.15763 111.363 8.39449Z" fill="white"/>
</svg>
